<svg width="327" height="367" viewBox="0 0 327 367" fill="none" xmlns="http://www.w3.org/2000/svg">
<g clip-path="url(#clip0_101_359)">
<path fill-rule="evenodd" clip-rule="evenodd" d="M283.929 140.16C283.929 177.332 269.095 212.982 242.688 239.268C216.282 265.553 180.467 280.319 143.123 280.319C122.424 280.308 101.982 275.743 83.2617 266.952C79.6694 265.281 76.1778 263.61 72.7533 261.471C59.1389 253.66 46.9388 243.628 36.662 231.795C32.9057 227.559 29.4185 223.095 26.2207 218.427C21.8609 211.972 18.0536 205.164 14.8393 198.075C6.59196 179.932 2.3447 160.241 2.38356 140.327C2.29912 120.29 6.54724 100.469 14.8393 82.211C17.4034 76.5752 20.3419 71.1158 23.6355 65.8691C30.7412 54.5685 39.4226 44.3292 49.4198 35.4577V35.4577C75.1699 12.5133 108.53 -0.150314 143.089 -0.100194C154.344 -0.111812 165.56 1.22337 176.495 3.87666C191.183 7.45645 205.187 13.3937 217.958 21.4551V21.4551C220.409 23.0258 222.826 24.797 225.176 26.3009C227.526 27.8047 229.071 29.1749 230.951 30.6788C240.186 38.0269 248.454 46.5042 255.56 55.9102C270.797 75.9336 280.31 99.6867 283.09 124.653C283.659 129.803 283.939 134.979 283.929 140.16V140.16Z" fill="url(#paint0_radial_101_359)"/>
<path fill-rule="evenodd" clip-rule="evenodd" d="M269.292 61.8921L264.188 68.5759L262.342 65.6016C262.342 65.6016 86.787 41.2057 11.65 88.995L6.27832 87.324L12.6237 76.5965C12.6237 76.5965 53.113 48.7918 147.991 51.198C147.991 51.198 117.372 41.4062 36.3599 48.9589L36.6957 37.9306C36.6957 37.9306 100.653 -5.24683 216.716 13.3008C216.749 13.1671 253.277 33.1851 269.292 61.8921Z" fill="url(#paint1_radial_101_359)"/>
<path fill-rule="evenodd" clip-rule="evenodd" d="M4.53246 165.759L0.167969 174.648L14.8731 205.862C14.8731 205.862 131.943 146.61 283.46 132.841L286.481 127.059L285.105 110.751C285.105 110.751 159.742 108.178 4.53246 165.759Z" fill="url(#paint2_radial_101_359)"/>
<path fill-rule="evenodd" clip-rule="evenodd" d="M40.187 244.795C40.187 244.795 142.317 204.091 280.169 193.33L275.939 205.862C275.939 205.862 159.708 210.875 54.12 257.394L40.187 244.795Z" fill="url(#paint3_radial_101_359)"/>
<path fill-rule="evenodd" clip-rule="evenodd" d="M54.1201 257.227C63.9105 252.539 74.005 248.508 84.3361 245.162C84.3361 245.162 162.898 252.648 269.291 217.993L258.85 238.779C258.85 238.779 198.183 266.016 110.053 276.944C110.053 276.944 84.4368 278.448 54.1201 257.227Z" fill="url(#paint4_radial_101_359)"/>
<path fill-rule="evenodd" clip-rule="evenodd" d="M269.292 61.8923L264.188 68.5761L262.342 65.6018C262.342 65.6018 86.787 41.2059 11.65 88.9952L6.27832 87.3242C8.39344 85.9206 87.2906 39.9026 269.292 61.8923Z" fill="#005EFF"/>
<path fill-rule="evenodd" clip-rule="evenodd" d="M36.6622 37.7971C36.6622 37.7971 118.883 38.3318 164.677 51.1648H147.891C147.891 51.1648 111.262 41.4398 36.3936 48.792L36.6622 37.7971Z" fill="#005EFF"/>
<path fill-rule="evenodd" clip-rule="evenodd" d="M14.873 205.862C14.873 205.862 163.972 129.766 284.097 127.26L283.359 132.841C283.359 132.841 180.02 134.746 14.873 205.862Z" fill="#005EFF"/>
<path fill-rule="evenodd" clip-rule="evenodd" d="M269.292 217.993L261.335 216.355C261.335 216.355 201.373 243.959 81.9526 245.965C81.9526 245.965 206.409 251.913 269.292 217.993Z" fill="#005EFF"/>
<path style="mix-blend-mode:screen" d="M281.102 347.647C341.505 287.521 341.505 190.038 281.102 129.912C220.699 69.7863 122.766 69.7864 62.3625 129.912C1.95921 190.038 1.95919 287.521 62.3624 347.647C122.766 407.773 220.699 407.773 281.102 347.647Z" fill="url(#paint5_radial_101_359)"/>
<path d="M259.992 49.0926C183.478 15.6735 38.4079 37.9641 36.7964 38.198V37.3625C38.24 37.162 183.713 14.9383 260.462 48.324L259.992 49.0926Z" fill="#00E7F4"/>
<path d="M249.752 38.1647C205.737 22.1235 78.5282 20.6531 77.3867 20.6197V19.7842C78.6625 19.7842 205.872 21.288 250.054 37.396L249.752 38.1647Z" fill="#00E7F4"/>
<path d="M241.224 29.342C217.421 14.9718 168.068 9.29056 167.564 9.29056V8.45508C168.068 8.45508 217.589 14.3034 241.426 28.7739L241.224 29.342Z" fill="#00E7F4"/>
<path d="M15.1083 206.062L14.6382 205.36C15.7125 204.659 124.02 135.18 241.359 112.221V113.023C124.322 135.882 16.1826 205.36 15.1083 206.062Z" fill="#00E7F4"/>
<path d="M0.302045 174.949L0 174.147C0.705039 173.913 72.216 147.579 167.497 121.612L167.598 122.314C72.4847 148.381 1.00708 174.682 0.302045 174.949Z" fill="#00E7F4"/>
</g>
<defs>
<radialGradient id="paint0_radial_101_359" cx="0" cy="0" r="1" gradientUnits="userSpaceOnUse" gradientTransform="translate(113.108 94.3087) scale(193.584 192.694)">
<stop stop-color="#0683EA"/>
<stop offset="0.6" stop-color="#0BB3F6"/>
<stop offset="1" stop-color="#F2F4FF"/>
</radialGradient>
<radialGradient id="paint1_radial_101_359" cx="0" cy="0" r="1" gradientUnits="userSpaceOnUse" gradientTransform="translate(104.614 49.1929) scale(268.821 267.587)">
<stop stop-color="#7738A4"/>
<stop offset="1" stop-color="#450086"/>
</radialGradient>
<radialGradient id="paint2_radial_101_359" cx="0" cy="0" r="1" gradientUnits="userSpaceOnUse" gradientTransform="translate(104.614 49.2264) scale(268.821 267.587)">
<stop stop-color="#7738A4"/>
<stop offset="1" stop-color="#450086"/>
</radialGradient>
<radialGradient id="paint3_radial_101_359" cx="0" cy="0" r="1" gradientUnits="userSpaceOnUse" gradientTransform="translate(104.614 49.2265) scale(268.822 267.587)">
<stop stop-color="#7738A4"/>
<stop offset="1" stop-color="#450086"/>
</radialGradient>
<radialGradient id="paint4_radial_101_359" cx="0" cy="0" r="1" gradientUnits="userSpaceOnUse" gradientTransform="translate(104.614 50.9641) scale(267.445 266.216)">
<stop stop-color="#7738A4"/>
<stop offset="1" stop-color="#450086"/>
</radialGradient>
<radialGradient id="paint5_radial_101_359" cx="0" cy="0" r="1" gradientUnits="userSpaceOnUse" gradientTransform="translate(171.736 238.783) scale(154.672 153.962)">
<stop stop-color="#2C6AFF"/>
<stop offset="0.09" stop-color="#2559D6"/>
<stop offset="0.23" stop-color="#1B429E"/>
<stop offset="0.36" stop-color="#132E6E"/>
<stop offset="0.5" stop-color="#0C1D46"/>
<stop offset="0.63" stop-color="#071027"/>
<stop offset="0.76" stop-color="#030712"/>
<stop offset="0.89" stop-color="#010204"/>
<stop offset="1"/>
</radialGradient>
<clipPath id="clip0_101_359">
<rect width="326.4" height="392.741" fill="white"/>
</clipPath>
</defs>
</svg>
