<svg width="194" height="233" viewBox="0 0 194 233" fill="none" xmlns="http://www.w3.org/2000/svg">
<g clip-path="url(#clip0_434_2)">
<path fill-rule="evenodd" clip-rule="evenodd" d="M168.259 83.0595C168.259 105.088 159.468 126.215 143.819 141.791C128.17 157.368 106.946 166.119 84.816 166.119C72.5494 166.112 60.4357 163.407 49.3418 158.197C47.213 157.207 45.1438 156.217 43.1144 154.949C35.0464 150.32 27.8166 144.376 21.7265 137.363C19.5005 134.853 17.4339 132.207 15.5389 129.441C12.9552 125.616 10.699 121.582 8.79422 117.38C3.90677 106.629 1.38981 94.9597 1.41284 83.1585C1.3628 71.2844 3.88027 59.5386 8.79422 48.7187C10.3137 45.3789 12.0551 42.1436 14.0069 39.0344C18.2178 32.3375 23.3624 26.2697 29.2868 21.0124V21.0124C44.5465 7.41537 64.3157 -0.0891841 84.7961 -0.0594825C91.4659 -0.0663676 98.1124 0.724872 104.592 2.29723C113.297 4.41864 121.596 7.93707 129.164 12.7143V12.7143C130.616 13.6451 132.049 14.6948 133.441 15.586C134.834 16.4772 135.749 17.2892 136.863 18.1804C142.336 22.5349 147.236 27.5586 151.447 33.1327C160.477 44.9987 166.114 59.0749 167.761 73.8703C168.098 76.9218 168.265 79.9896 168.259 83.0595V83.0595Z" fill="url(#paint0_radial_434_2)"/>
<path fill-rule="evenodd" clip-rule="evenodd" d="M159.584 36.6775L156.56 40.6384L155.466 38.8758C155.466 38.8758 51.4307 24.4186 6.90398 52.7389L3.7207 51.7486L7.48103 45.3914C7.48103 45.3914 31.4752 28.9142 87.7007 30.3401C87.7007 30.3401 69.5557 24.5374 21.5472 29.0132L21.7463 22.4778C21.7463 22.4778 59.6477 -3.1095 128.427 7.88193C128.447 7.80271 150.094 19.6655 159.584 36.6775Z" fill="url(#paint1_radial_434_2)"/>
<path fill-rule="evenodd" clip-rule="evenodd" d="M2.68604 98.2299L0.0996094 103.498L8.81397 121.995C8.81397 121.995 78.1905 86.8819 167.98 78.7225L169.771 75.2964L168.955 65.6318C168.955 65.6318 94.6642 64.1069 2.68604 98.2299Z" fill="url(#paint2_radial_434_2)"/>
<path fill-rule="evenodd" clip-rule="evenodd" d="M23.8145 145.067C23.8145 145.067 84.3375 120.945 166.03 114.568L163.523 121.995C163.523 121.995 94.6435 124.966 32.0712 152.533L23.8145 145.067Z" fill="url(#paint3_radial_434_2)"/>
<path fill-rule="evenodd" clip-rule="evenodd" d="M32.0723 152.434C37.8741 149.656 43.8562 147.268 49.9785 145.285C49.9785 145.285 96.5345 149.721 159.584 129.184L153.397 141.502C153.397 141.502 117.445 157.643 65.2186 164.119C65.2186 164.119 50.0381 165.01 32.0723 152.434Z" fill="url(#paint4_radial_434_2)"/>
<path fill-rule="evenodd" clip-rule="evenodd" d="M159.584 36.6776L156.56 40.6385L155.466 38.8759C155.466 38.8759 51.4307 24.4187 6.90398 52.7389L3.7207 51.7487C4.97414 50.9169 51.7291 23.6463 159.584 36.6776Z" fill="#005EFF"/>
<path fill-rule="evenodd" clip-rule="evenodd" d="M21.7256 22.3984C21.7256 22.3984 70.4504 22.7153 97.5882 30.3202H87.6403C87.6403 30.3202 65.934 24.5571 21.5664 28.9141L21.7256 22.3984Z" fill="#005EFF"/>
<path fill-rule="evenodd" clip-rule="evenodd" d="M8.8125 121.995C8.8125 121.995 97.1696 76.9004 168.357 75.415L167.919 78.7224C167.919 78.7224 106.68 79.8512 8.8125 121.995Z" fill="#005EFF"/>
<path fill-rule="evenodd" clip-rule="evenodd" d="M159.583 129.184L154.868 128.213C154.868 128.213 119.334 144.572 48.5645 145.76C48.5645 145.76 122.318 149.285 159.583 129.184Z" fill="#005EFF"/>
<path style="mix-blend-mode:screen" d="M166.582 206.018C202.378 170.387 202.378 112.618 166.582 76.9869C130.787 41.3559 72.7513 41.3559 36.9559 76.9869C1.16049 112.618 1.16047 170.387 36.9559 206.018C72.7512 241.649 130.787 241.649 166.582 206.018Z" fill="url(#paint5_radial_434_2)"/>
<path d="M154.072 29.0925C108.729 9.28808 22.7597 22.4976 21.8047 22.6362V22.1411C22.6602 22.0223 108.869 8.8524 154.35 28.637L154.072 29.0925Z" fill="#00E7F4"/>
<path d="M148.004 22.6165C121.921 13.1104 46.5358 12.239 45.8594 12.2192V11.7241C46.6154 11.7241 122 12.6153 148.183 22.161L148.004 22.6165Z" fill="#00E7F4"/>
<path d="M142.95 17.388C128.844 8.87211 99.5973 5.50536 99.2988 5.50536V5.01025C99.5973 5.01025 128.944 8.47602 143.07 17.0513L142.95 17.388Z" fill="#00E7F4"/>
<path d="M8.9524 122.114L8.67383 121.698C9.31049 121.282 73.4942 80.1085 143.03 66.5029V66.9782C73.6733 80.5244 9.58906 121.698 8.9524 122.114Z" fill="#00E7F4"/>
<path d="M0.178994 103.676L0 103.2C0.417811 103.062 42.7957 87.4559 99.2599 72.0679L99.3197 72.4838C42.9549 87.9312 0.596805 103.517 0.178994 103.676Z" fill="#00E7F4"/>
</g>
<defs>
<radialGradient id="paint0_radial_434_2" cx="0" cy="0" r="1" gradientUnits="userSpaceOnUse" gradientTransform="translate(67.0291 55.8879) scale(114.719 114.192)">
<stop stop-color="#0683EA"/>
<stop offset="0.6" stop-color="#0BB3F6"/>
<stop offset="1" stop-color="#F2F4FF"/>
</radialGradient>
<radialGradient id="paint1_radial_434_2" cx="0" cy="0" r="1" gradientUnits="userSpaceOnUse" gradientTransform="translate(61.9954 29.1518) scale(159.305 158.574)">
<stop stop-color="#7738A4"/>
<stop offset="1" stop-color="#450086"/>
</radialGradient>
<radialGradient id="paint2_radial_434_2" cx="0" cy="0" r="1" gradientUnits="userSpaceOnUse" gradientTransform="translate(61.9953 29.172) scale(159.305 158.574)">
<stop stop-color="#7738A4"/>
<stop offset="1" stop-color="#450086"/>
</radialGradient>
<radialGradient id="paint3_radial_434_2" cx="0" cy="0" r="1" gradientUnits="userSpaceOnUse" gradientTransform="translate(61.9945 29.1719) scale(159.306 158.574)">
<stop stop-color="#7738A4"/>
<stop offset="1" stop-color="#450086"/>
</radialGradient>
<radialGradient id="paint4_radial_434_2" cx="0" cy="0" r="1" gradientUnits="userSpaceOnUse" gradientTransform="translate(61.9955 30.2018) scale(158.49 157.762)">
<stop stop-color="#7738A4"/>
<stop offset="1" stop-color="#450086"/>
</radialGradient>
<radialGradient id="paint5_radial_434_2" cx="0" cy="0" r="1" gradientUnits="userSpaceOnUse" gradientTransform="translate(101.771 141.504) scale(91.6598 91.2388)">
<stop stop-color="#2C6AFF"/>
<stop offset="0.09" stop-color="#2559D6"/>
<stop offset="0.23" stop-color="#1B429E"/>
<stop offset="0.36" stop-color="#132E6E"/>
<stop offset="0.5" stop-color="#0C1D46"/>
<stop offset="0.63" stop-color="#071027"/>
<stop offset="0.76" stop-color="#030712"/>
<stop offset="0.89" stop-color="#010204"/>
<stop offset="1"/>
</radialGradient>
<clipPath id="clip0_434_2">
<rect width="193.427" height="232.741" fill="white"/>
</clipPath>
</defs>
</svg>
